 <svg
    width="24"
    height="24"
    viewBox="0 0 24 24"
    fill="none"
    xmlns="http://www.w3.org/2000/svg"
  >
    <path
      d="M12 5C7.455 5 3.734 7.747 1.766 12C3.734 16.253 7.455 19 12 19C16.545 19 20.266 16.253 22.234 12C20.266 7.747 16.545 5 12 5ZM12 17C9.243 17 7 14.757 7 12C7 9.243 9.243 7 12 7C14.757 7 17 9.243 17 12C17 14.757 14.757 17 12 17ZM12 9C10.346 9 9 10.346 9 12C9 13.654 10.346 15 12 15C13.654 15 15 13.654 15 12C15 10.346 13.654 9 12 9Z"
      fill="currentColor"
    />
  </svg>